<svg width="12" height="12" viewBox="0 0 12 12" fill="none" xmlns="http://www.w3.org/2000/svg">
<path d="M6.86642 1.75507L7.74642 3.51507C7.86642 3.76007 8.18642 3.99507 8.45642 4.04007L10.0514 4.30507C11.0714 4.47507 11.3114 5.21507 10.5764 5.94507L9.33642 7.18507C9.12642 7.39507 9.01142 7.80007 9.07642 8.09007L9.43142 9.62507C9.71142 10.8401 9.06642 11.3101 7.99142 10.6751L6.49642 9.79007C6.22642 9.63007 5.78142 9.63007 5.50642 9.79007L4.01142 10.6751C2.94142 11.3101 2.29142 10.8351 2.57142 9.62507L2.92642 8.09007C2.99142 7.80007 2.87642 7.39507 2.66642 7.18507L1.42642 5.94507C0.696419 5.21507 0.931419 4.47507 1.95142 4.30507L3.54642 4.04007C3.81142 3.99507 4.13142 3.76007 4.25142 3.51507L5.13142 1.75507C5.61142 0.800068 6.39142 0.800068 6.86642 1.75507Z" fill="#2D68A2"/>
</svg>
