<svg width="20" height="20" viewBox="0 0 20 20" fill="none" xmlns="http://www.w3.org/2000/svg">
<path d="M11.444 2.92507L12.9107 5.85841C13.1107 6.26674 13.644 6.65841 14.094 6.73341L16.7524 7.17507C18.4524 7.45841 18.8524 8.69174 17.6274 9.90841L15.5607 11.9751C15.2107 12.3251 15.019 13.0001 15.1274 13.4834L15.719 16.0417C16.1857 18.0667 15.1107 18.8501 13.319 17.7917L10.8274 16.3167C10.3774 16.0501 9.6357 16.0501 9.17737 16.3167L6.6857 17.7917C4.90237 18.8501 3.81903 18.0584 4.2857 16.0417L4.87737 13.4834C4.9857 13.0001 4.79403 12.3251 4.44403 11.9751L2.37737 9.90841C1.1607 8.69174 1.55237 7.45841 3.25237 7.17507L5.9107 6.73341C6.35237 6.65841 6.8857 6.26674 7.0857 5.85841L8.55237 2.92507C9.35237 1.33341 10.6524 1.33341 11.444 2.92507Z" stroke="white" stroke-width="1.53011" stroke-linecap="round" stroke-linejoin="round"/>
</svg>
